<svg id="svg66" xmlns="http://www.w3.org/2000/svg" viewBox="0 0 1920 1080"><defs><style>.cls-1,.cls-5{fill:#fff;}.cls-1,.cls-3{stroke:#fff;stroke-miterlimit:10;opacity:0.3;}.cls-2{fill:#252934;}.cls-3{fill:none;}.cls-4{opacity:0.6;}</style></defs><line class="cls-1" x1="60.66" y1="1204.05" x2="-121.12" y2="979.37"/><line class="cls-1" x1="2021.52" y1="815.71" x2="1914.28" y2="1244.9"/><rect class="cls-2" width="1920" height="1079.96"/><line class="cls-3" x1="1410.67" y1="251.82" x2="1400.07" y2="-110.85"/><line class="cls-3" x1="1409.34" y1="260.02" x2="1269.76" y2="643.49"/><line class="cls-3" x1="1408.35" y1="252.59" x2="1288.12" y2="81.85"/><line class="cls-3" x1="1405.43" y1="-104.26" x2="1288.01" y2="74.83"/><line class="cls-3" x1="1281.93" y1="76.4" x2="976.24" y2="-84.8"/><line class="cls-3" x1="1282.73" y1="81.42" x2="1088.7" y2="281.37"/><line class="cls-3" x1="1406.57" y1="256.42" x2="1089.97" y2="284.02"/><line class="cls-3" x1="1266.43" y1="643.68" x2="1087.66" y2="288.16"/><line class="cls-3" x1="1084.57" y1="280.35" x2="976.24" y2="-84.8"/><line class="cls-3" x1="1083.37" y1="287.86" x2="885.18" y2="574.09"/><line class="cls-3" x1="1081.66" y1="283.44" x2="729.13" y2="201.86"/><line class="cls-3" x1="976.24" y1="-84.8" x2="727.81" y2="197.71"/><line class="cls-3" x1="881.16" y1="573.67" x2="726.64" y2="204.82"/><line class="cls-3" x1="724.16" y1="205.05" x2="647.71" y2="582.02"/><line class="cls-3" x1="878.59" y1="577.7" x2="651.11" y2="586.02"/><line class="cls-3" x1="848.55" y1="945.29" x2="648.95" y2="589.88"/><line class="cls-3" x1="1264.9" y1="649.92" x2="854.04" y2="946.51"/><line class="cls-3" x1="882.43" y1="581.74" x2="850.98" y2="944.77"/><line class="cls-3" x1="644.25" y1="582.85" x2="445.74" y2="330.6"/><line class="cls-3" x1="721.14" y1="202.63" x2="446.98" y2="325.55"/><line class="cls-3" x1="631.55" y1="-32.72" x2="445.09" y2="323.54"/><line class="cls-3" x1="723.42" y1="196.96" x2="631.55" y2="-32.72"/><line class="cls-3" x1="439.05" y1="328.37" x2="199.06" y2="392.44"/><line class="cls-3" x1="410.38" y1="625.96" x2="197.85" y2="396.66"/><line class="cls-3" x1="442.71" y1="331.49" x2="413.68" y2="624.85"/><line class="cls-3" x1="642.71" y1="586.94" x2="417.41" y2="628.31"/><line class="cls-3" x1="194.73" y1="389.29" x2="178.34" y2="88.31"/><line class="cls-3" x1="440.02" y1="324.42" x2="181.22" y2="86.95"/><line class="cls-3" x1="631.55" y1="-32.72" x2="182.2" y2="83.04"/><line class="cls-3" x1="190.96" y1="392.11" x2="-142.06" y2="272.9"/><line class="cls-3" x1="174.46" y1="86.24" x2="-142.06" y2="272.9"/><line class="cls-3" x1="175.5" y1="80.76" x2="-10.32" y2="-156.04"/><line class="cls-3" x1="192.01" y1="396.61" x2="-53.21" y2="652.05"/><line class="cls-3" x1="409.03" y1="629.28" x2="-53.21" y2="652.05"/><line class="cls-3" x1="410.77" y1="632.49" x2="198.97" y2="922.86"/><line class="cls-3" x1="193.66" y1="923.15" x2="-53.21" y2="652.05"/><line class="cls-3" x1="540.9" y1="841.39" x2="200.57" y2="925.25"/><line class="cls-3" x1="542.76" y1="836.78" x2="415.5" y2="632.66"/><line class="cls-3" x1="645.29" y1="590.12" x2="546.58" y2="836.44"/><line class="cls-3" x1="846.64" y1="947.56" x2="548.99" y2="841.8"/><line class="cls-3" x1="1267.66" y1="651.62" x2="1190.19" y2="1142.77"/><line class="cls-3" x1="1190.19" y1="1142.77" x2="854.29" y2="951.08"/><line class="cls-3" x1="622.36" y1="1165.24" x2="545.98" y2="844.49"/><line class="cls-3" x1="847.55" y1="951.89" x2="622.36" y2="1165.24"/><line class="cls-3" x1="622.36" y1="1165.24" x2="200.16" y2="928.32"/><line class="cls-3" x1="194.64" y1="930.04" x2="60.66" y2="1204.05"/><line class="cls-3" x1="192.34" y1="926.95" x2="-121.13" y2="979.37"/><line class="cls-3" x1="1264.17" y1="646.7" x2="886.93" y2="578.3"/><line class="cls-3" x1="1597.66" y1="81.27" x2="1413.88" y2="253.16"/><line class="cls-3" x1="1597.65" y1="75.49" x2="1405.43" y2="-104.26"/><line class="cls-3" x1="1557.25" y1="438.89" x2="1413.43" y2="259.35"/><line class="cls-3" x1="1556.44" y1="444.61" x2="1271.77" y2="645.02"/><line class="cls-3" x1="1600.28" y1="82.58" x2="1560.36" y2="437.98"/><line class="cls-3" x1="1984.75" y1="-58.76" x2="1604.73" y2="76.96"/><line class="cls-3" x1="1889.12" y1="261.81" x2="1563.6" y2="440.15"/><line class="cls-3" x1="1889.24" y1="257.55" x2="1604.34" y2="80.61"/><line class="cls-3" x1="1984.75" y1="-58.76" x2="1894" y2="255.72"/><line class="cls-3" x1="1803.36" y1="584.04" x2="1563.54" y2="444.31"/><line class="cls-3" x1="1891.76" y1="263.87" x2="1808.12" y2="582.06"/><line class="cls-3" x1="2058.28" y1="451.75" x2="1895.59" y2="262.98"/><line class="cls-3" x1="2058.28" y1="451.75" x2="1810.79" y2="584.17"/><line class="cls-3" x1="1802.82" y1="586.66" x2="1272.51" y2="646.97"/><line class="cls-3" x1="2021.51" y1="815.71" x2="1809.94" y2="589.29"/><line class="cls-3" x1="1472.88" y1="813.06" x2="1271.6" y2="650.1"/><line class="cls-3" x1="1803.54" y1="588.61" x2="1479.61" y2="813.31"/><line class="cls-3" x1="1473.38" y1="818.88" x2="1190.19" y2="1142.77"/><line class="cls-3" x1="2021.51" y1="815.71" x2="1480.36" y2="815.71"/><line class="cls-3" x1="1639.14" y1="1042.46" x2="1478.61" y2="819.13"/><line class="cls-3" x1="2021.51" y1="815.71" x2="1645.2" y2="1043.7"/><line class="cls-3" x1="1637.48" y1="1046.76" x2="1190.19" y2="1142.77"/><line class="cls-3" x1="1914.28" y1="1244.9" x2="1644.99" y2="1048.36"/><g class="cls-4"><path class="cls-5" d="M854.85,949a4.17,4.17,0,0,1-.56,2.1,4.23,4.23,0,0,1-3.67,2.13,4.22,4.22,0,0,1-4-5.65,4.22,4.22,0,0,1,4-2.81l.36,0a4.17,4.17,0,0,1,3.06,1.74A4.06,4.06,0,0,1,854.85,949Z"/><path class="cls-5" d="M549.24,840.38a4.16,4.16,0,0,1-.25,1.42,4.22,4.22,0,0,1-3,2.69,3.93,3.93,0,0,1-1,.12,4.21,4.21,0,0,1-4.1-3.22,3.73,3.73,0,0,1-.13-1,4.23,4.23,0,0,1,2-3.6,4.18,4.18,0,0,1,2.24-.64,4.35,4.35,0,0,1,1.58.3A4.25,4.25,0,0,1,549.24,840.38Z"/><path class="cls-5" d="M200.7,926.26a4.11,4.11,0,0,1-.54,2.06,4.21,4.21,0,0,1-3.67,2.15,4.09,4.09,0,0,1-1.85-.43,4.17,4.17,0,0,1-2.3-3.09,3.85,3.85,0,0,1-.06-.69,4.21,4.21,0,0,1,6.69-3.4,4.11,4.11,0,0,1,1.6,2.39A3.73,3.73,0,0,1,200.7,926.26Z"/><path class="cls-5" d="M417.49,629.07a4.25,4.25,0,0,1-4.23,4.24,4.26,4.26,0,0,1-4.23-4,1.48,1.48,0,0,1,0-.21,4.24,4.24,0,0,1,4.24-4.24l.42,0a4.22,4.22,0,0,1,3.73,3.46A3.22,3.22,0,0,1,417.49,629.07Z"/><path class="cls-5" d="M199.21,393.54a4.24,4.24,0,0,1-4.25,4.25,4.24,4.24,0,0,1-4-5.68,4.23,4.23,0,0,1,3.77-2.82H195a4.24,4.24,0,0,1,4.1,3.16A4,4,0,0,1,199.21,393.54Z"/><path class="cls-5" d="M182.34,84.09a4.24,4.24,0,0,1-4,4.22h-.23a4.23,4.23,0,0,1-3.65-2.08,4.13,4.13,0,0,1-.59-2.15,4.23,4.23,0,0,1,8.33-1A4,4,0,0,1,182.34,84.09Z"/><path class="cls-5" d="M447.36,327.28a4.25,4.25,0,0,1-4.23,4.23l-.42,0a4.21,4.21,0,0,1-3.66-3.12,3.93,3.93,0,0,1-.15-1.09,4.16,4.16,0,0,1,1.12-2.86,4.21,4.21,0,0,1,3.11-1.37,4.25,4.25,0,0,1,3.85,2.5A4,4,0,0,1,447.36,327.28Z"/><path class="cls-5" d="M729.25,200.9a3.83,3.83,0,0,1-.12,1,4.2,4.2,0,0,1-4.13,3.28,3.86,3.86,0,0,1-.84-.09,4.19,4.19,0,0,1-3-2.42,4,4,0,0,1-.38-1.73,4.23,4.23,0,0,1,2.66-3.94,4.16,4.16,0,0,1,1.58-.31,4.25,4.25,0,0,1,4.25,4.25Z"/><path class="cls-5" d="M651.12,586.18a4.24,4.24,0,0,1-4.25,4.24,4.35,4.35,0,0,1-1.58-.3,4.22,4.22,0,0,1-2.58-3.18,3.22,3.22,0,0,1-.08-.76,4.27,4.27,0,0,1,4.24-4.25,3.86,3.86,0,0,1,.84.09,4.23,4.23,0,0,1,3.4,4A.86.86,0,0,1,651.12,586.18Z"/><path class="cls-5" d="M887,577.55a3.67,3.67,0,0,1-.07.75,4.21,4.21,0,0,1-4.14,3.46l-.36,0a4.18,4.18,0,0,1-3.84-4,.76.76,0,0,1,0-.15,4.21,4.21,0,0,1,8.42,0Z"/><path class="cls-5" d="M1090,284.39a4.21,4.21,0,0,1-2.33,3.77,4.12,4.12,0,0,1-1.89.45,4.22,4.22,0,0,1-4.22-4.22,4.26,4.26,0,0,1,.11-.95,4.2,4.2,0,0,1,2.91-3.09,4,4,0,0,1,1.2-.18,4.11,4.11,0,0,1,2.93,1.2A4.16,4.16,0,0,1,1090,284C1090,284.14,1090,284.27,1090,284.39Z"/><path class="cls-5" d="M1289.93,78.38a4.25,4.25,0,0,1-4.25,4.24,4.25,4.25,0,0,1-4.24-4.24,4.24,4.24,0,0,1,6.57-3.55A4.21,4.21,0,0,1,1289.93,78.38Z"/><path class="cls-5" d="M1415,256.05a4.2,4.2,0,0,1-1.59,3.3,4.14,4.14,0,0,1-2.64.93,4.1,4.1,0,0,1-1.45-.26,4.19,4.19,0,0,1-2.77-3.6c0-.12,0-.24,0-.37a4.21,4.21,0,0,1,1.8-3.46,4.16,4.16,0,0,1,2.32-.77h.12a4.24,4.24,0,0,1,4.23,4.24Z"/><path class="cls-5" d="M1272.54,647.45a4.24,4.24,0,0,1-4.22,4.23,3.6,3.6,0,0,1-.66-.06,4.23,4.23,0,0,1-3.56-4.17,3.67,3.67,0,0,1,.07-.75,4.2,4.2,0,0,1,2.26-3,4.15,4.15,0,0,1,1.89-.45,4,4,0,0,1,1.44.26,4.19,4.19,0,0,1,2.75,3.48A3.87,3.87,0,0,1,1272.54,647.45Z"/><path class="cls-5" d="M1480.36,815.71a4.23,4.23,0,0,1-1.75,3.42,4.22,4.22,0,1,1,1-5.82A4.22,4.22,0,0,1,1480.36,815.71Z"/><path class="cls-5" d="M1645.81,1045.88a4.1,4.1,0,0,1-.82,2.48,4.2,4.2,0,0,1-7.51-1.6,3.71,3.71,0,0,1-.1-.88,4.18,4.18,0,0,1,1.76-3.42,4.11,4.11,0,0,1,2.46-.8,4.22,4.22,0,0,1,3.6,2A4.13,4.13,0,0,1,1645.81,1045.88Z"/><path class="cls-5" d="M1811.3,586.18a4.26,4.26,0,0,1-4.26,4.25,4.28,4.28,0,0,1-3.5-1.82,4.22,4.22,0,0,1-.72-2,3.87,3.87,0,0,1,0-.48,4.25,4.25,0,0,1,5.33-4.12,4.21,4.21,0,0,1,2.67,2.11A4.14,4.14,0,0,1,1811.3,586.18Z"/><path class="cls-5" d="M1564.12,442.18a4.14,4.14,0,0,1-.58,2.13,4.23,4.23,0,0,1-7.1.3,4.14,4.14,0,0,1-.77-2.43,4.18,4.18,0,0,1,1.58-3.29,4.13,4.13,0,0,1,2.64-.94,3.59,3.59,0,0,1,.47,0,4.23,4.23,0,0,1,3.76,4.2Z"/><path class="cls-5" d="M1605,78.38a4.24,4.24,0,0,1-4.23,4.23,3.59,3.59,0,0,1-.47,0,4.23,4.23,0,0,1-2.63-7.09,4.22,4.22,0,0,1,7.08,1.47A4.16,4.16,0,0,1,1605,78.38Z"/><path class="cls-5" d="M1897.06,259.78a4.2,4.2,0,0,1-1.47,3.2,4.13,4.13,0,0,1-2.76,1,4.23,4.23,0,0,1,0-8.46,4.09,4.09,0,0,1,1.17.17A4.21,4.21,0,0,1,1897.06,259.78Z"/></g></svg>