<svg id="svg66" xmlns="http://www.w3.org/2000/svg" viewBox="0 0 1920 1080"><defs><style>.cls-1{fill:#252934;}.cls-2{fill:#fff;}.cls-2,.cls-3{stroke:#fff;stroke-miterlimit:10;opacity:0.3;}.cls-3{fill:none;}</style></defs><rect class="cls-1" width="1920" height="1079.96"/><line class="cls-2" x1="1400.07" y1="-110.85" x2="1410.79" y2="256.05"/><line class="cls-2" x1="1268.32" y1="647.45" x2="1410.79" y2="256.05"/><circle class="cls-2" cx="646.88" cy="586.17" r="3.73"/><circle class="cls-2" cx="1641.6" cy="1045.88" r="3.73"/><circle class="cls-2" cx="1600.75" cy="78.38" r="3.73"/><circle class="cls-2" cx="1892.84" cy="259.78" r="3.73"/><circle class="cls-2" cx="1559.9" cy="442.17" r="3.73"/><circle class="cls-2" cx="1807.05" cy="586.17" r="3.73"/><circle class="cls-2" cx="443.13" cy="327.28" r="3.73"/><circle class="cls-2" cx="413.26" cy="629.07" r="3.73"/><circle class="cls-2" cx="545.01" cy="840.38" r="3.73"/><circle class="cls-2" cx="196.49" cy="926.26" r="3.73"/><circle class="cls-2" cx="850.62" cy="948.98" r="3.73"/><circle class="cls-2" cx="194.96" cy="393.54" r="3.73"/><circle class="cls-2" cx="178.11" cy="84.09" r="3.73"/><circle class="cls-2" cx="1410.79" cy="256.05" r="3.73"/><circle class="cls-2" cx="1085.77" cy="284.39" r="3.73"/><circle class="cls-2" cx="882.79" cy="577.55" r="3.73"/><circle class="cls-2" cx="1285.69" cy="78.38" r="3.73"/><circle class="cls-2" cx="725.01" cy="200.9" r="3.73"/><circle class="cls-2" cx="1268.32" cy="647.45" r="3.73"/><circle class="cls-2" cx="1476.15" cy="815.71" r="3.73"/><line class="cls-2" x1="1410.79" y1="256.05" x2="1285.69" y2="78.38"/><line class="cls-2" x1="1285.69" y1="78.38" x2="1405.43" y2="-104.26"/><line class="cls-2" x1="1285.69" y1="78.38" x2="976.24" y2="-84.8"/><line class="cls-2" x1="1285.69" y1="78.38" x2="1085.77" y2="284.39"/><line class="cls-2" x1="1085.77" y1="284.39" x2="1410.79" y2="256.05"/><line class="cls-2" x1="1268.32" y1="647.45" x2="1085.77" y2="284.39"/><line class="cls-2" x1="1085.77" y1="284.39" x2="976.24" y2="-84.8"/><line class="cls-2" x1="882.79" y1="577.55" x2="1085.77" y2="284.39"/><line class="cls-2" x1="1085.77" y1="284.39" x2="725.01" y2="200.9"/><line class="cls-2" x1="725.01" y1="200.9" x2="976.24" y2="-84.8"/><line class="cls-2" x1="882.79" y1="577.55" x2="725.01" y2="200.9"/><line class="cls-2" x1="725.01" y1="200.9" x2="646.88" y2="586.17"/><line class="cls-2" x1="882.79" y1="577.55" x2="646.88" y2="586.17"/><line class="cls-2" x1="646.88" y1="586.17" x2="850.62" y2="948.98"/><line class="cls-2" x1="850.62" y1="948.98" x2="1268.32" y2="647.45"/><line class="cls-2" x1="882.79" y1="577.55" x2="850.62" y2="948.98"/><line class="cls-2" x1="646.88" y1="586.17" x2="443.13" y2="327.28"/><line class="cls-2" x1="725.01" y1="200.9" x2="443.13" y2="327.28"/><line class="cls-2" x1="443.13" y1="327.28" x2="631.56" y2="-32.72"/><line class="cls-2" x1="725.01" y1="200.9" x2="631.56" y2="-32.72"/><line class="cls-2" x1="443.13" y1="327.28" x2="194.96" y2="393.54"/><line class="cls-2" x1="194.96" y1="393.54" x2="413.26" y2="629.07"/><line class="cls-2" x1="413.26" y1="629.07" x2="443.13" y2="327.28"/><line class="cls-2" x1="646.88" y1="586.17" x2="413.26" y2="629.07"/><line class="cls-2" x1="194.96" y1="393.54" x2="178.11" y2="84.09"/><line class="cls-2" x1="443.13" y1="327.28" x2="178.11" y2="84.09"/><line class="cls-2" x1="631.56" y1="-32.72" x2="178.11" y2="84.09"/><line class="cls-2" x1="194.96" y1="393.54" x2="-142.06" y2="272.9"/><line class="cls-2" x1="178.11" y1="84.09" x2="-142.06" y2="272.9"/><line class="cls-2" x1="178.11" y1="84.09" x2="-10.31" y2="-156.04"/><line class="cls-2" x1="194.96" y1="393.54" x2="-53.21" y2="652.05"/><line class="cls-2" x1="413.26" y1="629.07" x2="-53.21" y2="652.05"/><line class="cls-2" x1="413.26" y1="629.07" x2="196.49" y2="926.26"/><line class="cls-2" x1="-53.21" y1="652.05" x2="196.49" y2="926.26"/><line class="cls-2" x1="196.49" y1="926.26" x2="545.01" y2="840.38"/><line class="cls-2" x1="413.26" y1="629.07" x2="545.01" y2="840.38"/><line class="cls-2" x1="646.88" y1="586.17" x2="545.01" y2="840.38"/><line class="cls-2" x1="545.01" y1="840.38" x2="850.62" y2="948.98"/><line class="cls-2" x1="1268.32" y1="647.45" x2="1190.2" y2="1142.77"/><line class="cls-2" x1="850.62" y1="948.98" x2="1190.2" y2="1142.77"/><line class="cls-2" x1="545.01" y1="840.38" x2="622.37" y2="1165.24"/><line class="cls-2" x1="850.62" y1="948.98" x2="622.37" y2="1165.24"/><line class="cls-2" x1="196.49" y1="926.26" x2="622.37" y2="1165.24"/><line class="cls-2" x1="196.49" y1="926.26" x2="60.66" y2="1204.05"/><line class="cls-2" x1="196.49" y1="926.26" x2="-121.12" y2="979.37"/><line class="cls-2" x1="60.66" y1="1204.05" x2="-121.12" y2="979.37"/><line class="cls-2" x1="882.79" y1="577.55" x2="1268.32" y2="647.45"/><line class="cls-2" x1="1410.79" y1="256.05" x2="1600.75" y2="78.38"/><line class="cls-2" x1="1405.43" y1="-104.26" x2="1600.75" y2="78.38"/><line class="cls-2" x1="1410.79" y1="256.05" x2="1559.9" y2="442.17"/><line class="cls-2" x1="1268.32" y1="647.45" x2="1559.9" y2="442.17"/><line class="cls-2" x1="1600.75" y1="78.38" x2="1559.9" y2="442.17"/><line class="cls-2" x1="1600.75" y1="78.38" x2="1984.75" y2="-58.76"/><line class="cls-2" x1="1559.9" y1="442.17" x2="1892.84" y2="259.78"/><line class="cls-2" x1="1600.75" y1="78.38" x2="1892.84" y2="259.78"/><line class="cls-2" x1="1984.75" y1="-58.76" x2="1892.84" y2="259.78"/><line class="cls-2" x1="1559.9" y1="442.17" x2="1807.05" y2="586.17"/><line class="cls-2" x1="1892.84" y1="259.78" x2="1807.05" y2="586.17"/><line class="cls-2" x1="1892.84" y1="259.78" x2="2058.28" y2="451.75"/><line class="cls-2" x1="1807.05" y1="586.17" x2="2058.28" y2="451.75"/><line class="cls-2" x1="1268.32" y1="647.45" x2="1807.05" y2="586.17"/><line class="cls-2" x1="2021.52" y1="815.71" x2="1807.05" y2="586.17"/><line class="cls-2" x1="1268.32" y1="647.45" x2="1476.15" y2="815.71"/><line class="cls-2" x1="1807.05" y1="586.17" x2="1476.15" y2="815.71"/><line class="cls-2" x1="1190.2" y1="1142.77" x2="1476.15" y2="815.71"/><line class="cls-2" x1="2021.52" y1="815.71" x2="1476.15" y2="815.71"/><line class="cls-3" x1="1641.6" y1="1045.88" x2="1476.15" y2="815.71"/><line class="cls-3" x1="2021.52" y1="815.71" x2="1641.6" y2="1045.88"/><line class="cls-3" x1="1190.2" y1="1142.77" x2="1641.6" y2="1045.88"/><line class="cls-2" x1="2021.52" y1="815.71" x2="1914.28" y2="1244.9"/><line class="cls-3" x1="1641.6" y1="1045.88" x2="1914.28" y2="1244.9"/></svg>