<svg id="svg66" xmlns="http://www.w3.org/2000/svg" viewBox="0 0 1920 1080"><defs><style>.cls-1{fill:#252934;}.cls-2{fill:#fff;stroke:#fff;stroke-miterlimit:10;opacity:0.3;}</style></defs><rect class="cls-1" width="1920" height="1079.96"/><path class="cls-2" d="M2058.28,451.75l.38-.33L1896,262.62a4.18,4.18,0,0,0,1.12-2.84,4.24,4.24,0,0,0-2.59-3.9l90.75-314.5-.48-.14-.17-.47L1604.52,76.5a4.18,4.18,0,0,0-6.48-1.34L1405.77-104.62l-.34.36-.42-.27-4.07,6.22-.37-12.55-1,0,.41,14L1287.56,74.61a4.1,4.1,0,0,0-1.87-.46,4.2,4.2,0,0,0-3.48,1.83L976.47-85.25l-.23.45-.38-.33L727.4,197.42h0a4.21,4.21,0,0,0-2.39-.75,4,4,0,0,0-1.1.15L632-32.9l-.46.18-.13-.48L182.05,82.56a4.19,4.19,0,0,0-6.13-2.07L-9.92-156.35l-.79.62L175.13,81.1a4.2,4.2,0,0,0-.89,4.69L-142.31,272.47l.25.43-.17.47L190.85,392.59a4.26,4.26,0,0,0-.12,1,4.21,4.21,0,0,0,1,2.67L-53.57,651.7l.36.35h0l-.37.33L193.31,923.51a4.19,4.19,0,0,0-1.05,2.75c0,.07,0,.13,0,.2L-121.2,978.87l.16,1,313.49-52.42a4.28,4.28,0,0,0,1.75,2.37l-134,274,.89.44,134-274a4.14,4.14,0,0,0,4.79-1.49l422.22,236.92.25-.43h0l.34.36L847.92,952.23h0a4.15,4.15,0,0,0,2.71,1A4.2,4.2,0,0,0,854,951.5h0L1190,1143.2l.25-.43.1.49,447.32-96a4.19,4.19,0,0,0,7.07,1.51L1914,1245.3l.59-.81-269.31-196.55a4.09,4.09,0,0,0,.17-3.81l376.33-228-.25-.42h0l.36-.35L1810.27,588.89a4.22,4.22,0,0,0,1-2.72,4.13,4.13,0,0,0-.3-1.53l247.54-132.45Zm-1857.84,473a4.26,4.26,0,0,0-1.07-1.6L411.19,632.76a4.26,4.26,0,0,0,2.08.54,4.08,4.08,0,0,0,1.78-.4h0l127.3,204.18a4.2,4.2,0,0,0-1.58,3.3c0,.17,0,.35,0,.51h0ZM180.85,87.28,439.7,324.81a4.12,4.12,0,0,0-.8,2.47,2.91,2.91,0,0,0,.06.6L198.89,392a4.25,4.25,0,0,0-3.66-2.64L178.84,88.25A4.2,4.2,0,0,0,180.85,87.28Zm1104.84-4.67a4.08,4.08,0,0,0,2-.53L1408,252.91a4.21,4.21,0,0,0-1.39,3l-316.67,27.61a4.13,4.13,0,0,0-.87-1.78l194.09-200A4.21,4.21,0,0,0,1285.69,82.61Zm312.35-1a4.28,4.28,0,0,0,1.75.89L1559.87,438a4.13,4.13,0,0,0-2.2.64L1413.81,259a4.21,4.21,0,0,0,.38-5.46ZM1476.15,811.48a4.21,4.21,0,0,0-2.94,1.2l-201.31-163a4.25,4.25,0,0,0,.65-2.23l530.39-60.32a4.07,4.07,0,0,0,.39,1l-324,224.76A4.23,4.23,0,0,0,1476.15,811.48ZM853.73,946.12a4.15,4.15,0,0,0-2.24-1.28h0l31.45-363.07h0a4.2,4.2,0,0,0,3.89-3l377.29,68.41a1.9,1.9,0,0,0,0,.25,4.15,4.15,0,0,0,.55,2Zm31.86-371.73h0L1083.8,288.11a4,4,0,0,0,3.41.24L1266,643.93a4.23,4.23,0,0,0-1.69,2.28L887,577.81a2.17,2.17,0,0,0,0-.26A4.16,4.16,0,0,0,885.59,574.39Zm521.06-317.48a4.27,4.27,0,0,0,2.24,2.9l-139.6,383.53a4.37,4.37,0,0,0-1-.12,4,4,0,0,0-1.43.27L1088.1,287.91a4.22,4.22,0,0,0,1.89-3.39Zm149,185.26a4.22,4.22,0,0,0,.52,2L1271.46,644.63a4.42,4.42,0,0,0-1.24-.94l139.61-383.53a4.35,4.35,0,0,0,1,.12,4.25,4.25,0,0,0,2.23-.65l143.86,179.58A4.22,4.22,0,0,0,1555.67,442.17Zm247.15,144-530.39,60.33a3.93,3.93,0,0,0-.4-1L1556.77,445a4.17,4.17,0,0,0,6.49-.28l239.91,139.78A4.18,4.18,0,0,0,1802.82,586.15ZM1083,287.54,884.77,573.82a4.15,4.15,0,0,0-2-.5,4.19,4.19,0,0,0-1.17.17h0L727.09,204.58a4.19,4.19,0,0,0,1.89-2.25l352.61,81.6a3.41,3.41,0,0,0,0,.46A4.17,4.17,0,0,0,1083,287.54ZM850.49,944.76h0a3.9,3.9,0,0,0-1.49.32L649.37,589.59a4.16,4.16,0,0,0,1.72-3.07l227.54-8.32a4.17,4.17,0,0,0,3.3,3.49ZM724.67,205.11a1.83,1.83,0,0,0,.34,0,4.05,4.05,0,0,0,1.15-.17L880.71,573.87h0a4.2,4.2,0,0,0-2.12,3.33l-227.54,8.33a4.2,4.2,0,0,0-2.86-3.38,3.06,3.06,0,0,0-.48-.12l76.46-377A2.74,2.74,0,0,0,724.67,205.11Zm-3.28-2a4.19,4.19,0,0,0,2.3,1.85L647.23,582a2,2,0,0,0-.35,0,4.3,4.3,0,0,0-2.21.62L446.13,330.27a4.2,4.2,0,0,0,1.24-3,4.05,4.05,0,0,0-.2-1.26h0ZM546.11,836.29a4.06,4.06,0,0,0-1.1-.15,4,4,0,0,0-1.8.41L415.91,632.37a4.23,4.23,0,0,0,1.59-3.3,2.44,2.44,0,0,0,0-.27l225.35-41.37a4.26,4.26,0,0,0,2,2.46Zm96.54-249.85L417.3,627.82a4.22,4.22,0,0,0-3.13-2.88l29.05-293.43a4.18,4.18,0,0,0,2.12-.63l198.54,252.3a4.26,4.26,0,0,0-1.23,3ZM199.19,393.54a3.93,3.93,0,0,0-.06-.6l240.08-64.09a4.18,4.18,0,0,0,3,2.55l-29,293.44h0a4.16,4.16,0,0,0-2.39.81h0L198.17,396.26A4.18,4.18,0,0,0,199.19,393.54ZM547,836.66l98.76-246.4a3.88,3.88,0,0,0,1.09.15,4.2,4.2,0,0,0,1.63-.33L848.13,945.57a4.12,4.12,0,0,0-1.29,1.54L549.12,841.31h0a4.54,4.54,0,0,0,.11-.92A4.26,4.26,0,0,0,547,836.66Zm1341.89-575.3L1563.33,439.72a4.14,4.14,0,0,0-2.47-1.65l39.92-355.46A4.22,4.22,0,0,0,1604,81l285,177a4.31,4.31,0,0,0-.41,1.79A4.17,4.17,0,0,0,1888.92,261.36Zm-81.87,320.58a4.21,4.21,0,0,0-3.37,1.7l-239.9-139.78a4.33,4.33,0,0,0,.35-1.69,4.15,4.15,0,0,0-.31-1.57L1889.4,262.23a4.26,4.26,0,0,0,1.89,1.48L1807.63,582A5.42,5.42,0,0,0,1807.05,581.94ZM1084.1,280.5a4.24,4.24,0,0,0-2.29,2.46l-352.6-81.6a3.44,3.44,0,0,0,0-.46,4.17,4.17,0,0,0-1.09-2.82L976-83.79ZM720.78,200.9a4.36,4.36,0,0,0,.18,1.26h0l-274.21,123a4,4,0,0,0-1.24-1.31l186-355.32L723,197.19A4.21,4.21,0,0,0,720.78,200.9ZM195,397.77a4.19,4.19,0,0,0,2.48-.82L410,626.33a4.13,4.13,0,0,0-1,2.45L-52,651.49,192.43,396.9A4.14,4.14,0,0,0,195,397.77Zm214.13,232h0a4.21,4.21,0,0,0,1.29,2.38h0L198.55,922.59a4.1,4.1,0,0,0-2.06-.56,4.26,4.26,0,0,0-2.45.79L-52.12,652.49ZM546.46,844.34h0a4.13,4.13,0,0,0,2.33-2.09h0l297.72,105.8a4.08,4.08,0,0,0-.11.93,4.15,4.15,0,0,0,.84,2.52h0L622.65,1164.28ZM854.33,946.93h0l410.9-296.62a4.22,4.22,0,0,0,2,1.19L1189.82,1142,854.52,950.63a4.13,4.13,0,0,0,.34-1.65A4.37,4.37,0,0,0,854.33,946.93Zm413.84-295.26h.15a4.22,4.22,0,0,0,3-1.2l201.31,163a4.16,4.16,0,0,0,.44,5.07L1191,1141.14Zm211.7,162.06L1803.9,589a4.16,4.16,0,0,0,5.64.61l210.82,225.63h-540A4.13,4.13,0,0,0,1479.87,813.73Zm413-558.18a4.19,4.19,0,0,0-3.29,1.6l-285-177a4.07,4.07,0,0,0,.3-2.72L1984-58l-90.48,313.58A3.92,3.92,0,0,0,1892.84,255.55ZM1597.35,75.88a4.17,4.17,0,0,0,0,5l-183.85,172a4.12,4.12,0,0,0-2.33-1L1401-96.57l4.53-6.92Zm-187.18,176a4.16,4.16,0,0,0-1.38.46L1288.5,81.51a4.17,4.17,0,0,0-.1-6.35L1400-95.11ZM1282.42,81,1088.33,281a4,4,0,0,0-3.27-.81l-108-364L1281.75,76.87a4.18,4.18,0,0,0-.29,1.51A4.14,4.14,0,0,0,1282.42,81ZM444.64,323.33h0a4.16,4.16,0,0,0-1.5-.28,4.26,4.26,0,0,0-2.75,1h0L181.54,86.55a4.18,4.18,0,0,0,.8-2.46,5.29,5.29,0,0,0-.05-.56L630.59-31.95Zm-266.8-235,16.4,301.09a4.22,4.22,0,0,0-3.05,2.28L-140.89,272.79,174.76,86.65A4.2,4.2,0,0,0,177.84,88.29Zm22.83,837.45,340.39-83.88a4.22,4.22,0,0,0,4,2.75l.48,0h0l76.13,319.66L200.4,927.88a4.19,4.19,0,0,0,.33-1.62A4.6,4.6,0,0,0,200.67,925.74ZM1473.77,819.2a4.25,4.25,0,0,0,2.38.74,4.15,4.15,0,0,0,2-.55l160.56,223.38a4.2,4.2,0,0,0-1.38,3.11c0,.13,0,.26,0,.39L1191.56,1142Zm167.83,222.45a4.1,4.1,0,0,0-2,.54L1479,818.81a4.13,4.13,0,0,0,1.33-2.6h539.4l-374.81,227.07A4.21,4.21,0,0,0,1641.6,1041.65Zm167-459.4L1892.26,264a3.68,3.68,0,0,0,.58.06,4.27,4.27,0,0,0,2.36-.72L2057.5,451.6l-247,132.16A4.17,4.17,0,0,0,1808.6,582.25Z"/></svg>