<svg id="Layer_1" data-name="Layer 1" xmlns="http://www.w3.org/2000/svg" viewBox="0 0 36 36"><defs><style>.cls-1{fill:#0da2e6;stroke:#fff;stroke-miterlimit:10;}.cls-2{fill:#fff;}.cls-3{fill:#c8daea;}.cls-4{fill:#a9c6d8;}</style></defs><rect class="cls-1" x="0.5" y="0.5" width="35" height="35"/><path class="cls-2" d="M21.8,25.91A32.57,32.57,0,0,0,8,18a.56.56,0,0,1,.08-1l17.55-6.64a.85.85,0,0,1,1.13,1L23.6,25.12A1.22,1.22,0,0,1,21.8,25.91Z"/><path class="cls-3" d="M15.17,21l-2.75-1.49,10.13-6.17a.13.13,0,0,1,.16.21Z"/><polygon class="cls-3" points="14.81 25.98 12.42 19.49 15.09 20.93 14.81 25.98"/><path class="cls-4" d="M18.12,22.9l-2.76,2.53a.31.31,0,0,1-.51-.24l.24-4.26Z"/><path class="cls-2" d="M21.8,25.91A32.57,32.57,0,0,0,8,18a.56.56,0,0,1,.08-1l17.55-6.64a.85.85,0,0,1,1.13,1L23.6,25.12A1.22,1.22,0,0,1,21.8,25.91Z"/><path class="cls-3" d="M15.17,21l-2.75-1.49,10.13-6.17a.13.13,0,0,1,.16.21Z"/><path class="cls-3" d="M15.09,20.93,15,25.64a.18.18,0,0,1-.13-.11l-2.44-6Z"/><path class="cls-4" d="M18.12,22.9l-2.94,2.7a.19.19,0,0,1-.19,0,.18.18,0,0,1-.13-.11.29.29,0,0,1,0-.09l.25-4.51A35.34,35.34,0,0,1,18.12,22.9Z"/></svg>