<svg id="Layer_1" data-name="Layer 1" xmlns="http://www.w3.org/2000/svg" viewBox="0 0 36 36"><defs><style>.cls-1{fill:#0da2e6;stroke:#fff;}.cls-1,.cls-2{stroke-miterlimit:10;}.cls-2{fill:#fff;stroke:#0da2e6;}</style></defs><rect class="cls-1" x="0.5" y="0.5" width="35" height="35" rx="0.41"/><path class="cls-2" d="M11.53,8.94a2.93,2.93,0,0,1-3.17,2.9A2.92,2.92,0,1,1,8.39,6,2.91,2.91,0,0,1,11.53,8.94ZM5.29,30.31V13.54h6.17V30.31Z"/><path class="cls-2" d="M14.22,19.27c0-2.25-.07-4.16-.14-5.73H19.4l.27,2.15h.1a6.1,6.1,0,0,1,5.05-2.52c3.92,0,6.06,2.66,6.06,7.26v9.88H24.72V21.18c0-1.95-.65-3.07-2.15-3.07a2.12,2.12,0,0,0-2,1.46,3.3,3.3,0,0,0-.17,1.23v9.51H14.22Z"/></svg>