<svg id="Layer_1" data-name="Layer 1" xmlns="http://www.w3.org/2000/svg" viewBox="0 0 35.91 35.91"><defs><style>.cls-1{fill:#141a22;stroke:#fff;}.cls-1,.cls-2{stroke-miterlimit:10;}.cls-2{fill:#fff;stroke:#141a22;}</style></defs><rect class="cls-1" x="0.46" y="0.46" width="35" height="35" rx="0.41"/><path class="cls-2" d="M11.48,8.9a2.93,2.93,0,0,1-3.17,2.9A2.92,2.92,0,1,1,8.35,6,2.9,2.9,0,0,1,11.48,8.9ZM5.25,30.27V13.5h6.17V30.27Z"/><path class="cls-2" d="M14.18,19.23c0-2.25-.07-4.16-.14-5.73h5.32l.27,2.15h.1a6.1,6.1,0,0,1,5-2.53c3.92,0,6.07,2.66,6.07,7.26v9.89H24.67V21.13c0-1.94-.64-3.06-2.14-3.06a2.1,2.1,0,0,0-2,1.46,3.3,3.3,0,0,0-.17,1.23v9.51H14.18Z"/></svg>