<svg id="Layer_1" data-name="Layer 1" xmlns="http://www.w3.org/2000/svg" viewBox="0 0 36 35.18"><defs><style>.cls-1{fill:#fff;stroke:#fff;stroke-miterlimit:10;}</style></defs><path class="cls-1" d="M13.76,33.92c-.06-1.54-.12-3.07-.17-4.61a4.57,4.57,0,0,1-3.63,0c-1-.48-1.3-1.26-2.64-2.93A31,31,0,0,0,5,23.85a2.73,2.73,0,0,1,2-.17c.9.33,1,1.13,1.9,2.07.21.21,2,2,3.62,1.49a3.47,3.47,0,0,0,2-3,7.41,7.41,0,0,1-7.07-4.49,7.8,7.8,0,0,1,1-7.13,5.25,5.25,0,0,1-.35-2.94,5.11,5.11,0,0,1,.75-1.89A9.06,9.06,0,0,1,13.53,9.7,15.54,15.54,0,0,1,17.84,9a15.38,15.38,0,0,1,4.6.63,10,10,0,0,1,1.84-1.09,9.43,9.43,0,0,1,3.17-.8,9.32,9.32,0,0,1,.4,2.36,9,9,0,0,1-.23,2.41,7.55,7.55,0,0,1,1.55,6c-.7,3.17-3.86,5.62-7.7,5.69.3.75.61,1.5.92,2.25q0,3.67.11,7.36c7.71-2.28,13-9.06,13-16.39,0-9.22-8.15-16.95-17.43-17C8,.47-.06,9.59.53,19,1,25.89,5.92,32.09,13.07,34.61Z"/></svg>