<svg id="Layer_1" data-name="Layer 1" xmlns="http://www.w3.org/2000/svg" viewBox="0 0 70.71 70.71"><defs><style>.cls-1{fill:#252934;}.cls-1,.cls-2{stroke:#252934;stroke-miterlimit:10;}.cls-2{fill:#fff;}</style></defs><rect class="cls-1" x="0.25" y="0.25" width="70.21" height="70.21"/><path class="cls-2" d="M18.86,59.26,24.22,56c1,1.83,2,3.39,4.23,3.39S32,58.56,32,55.27V32.9h6.58V55.36c0,6.82-4,9.92-9.82,9.92A10.22,10.22,0,0,1,18.86,59.26Z"/><path class="cls-2" d="M42.13,58.56l5.35-3.1c1.41,2.3,3.25,4,6.49,4,2.72,0,4.46-1.36,4.46-3.24,0-2.26-1.78-3.05-4.79-4.37L52,51.13c-4.75-2-7.9-4.55-7.9-9.91,0-4.94,3.76-8.7,9.63-8.7,4.19,0,7.2,1.46,9.36,5.27L58,41.08c-1.12-2-2.35-2.82-4.23-2.82a2.86,2.86,0,0,0-3.14,2.82c0,2,1.22,2.77,4,4l1.64.71C61.86,48.17,65,50.62,65,56.12c0,5.92-4.65,9.16-10.9,9.16S44.05,62.37,42.13,58.56Z"/></svg>