<svg id="Layer_1" data-name="Layer 1" xmlns="http://www.w3.org/2000/svg" viewBox="0 0 77.62 79.12"><defs><style>.cls-1{fill:#252934;stroke:#252934;stroke-miterlimit:10;}</style></defs><path class="cls-1" d="M25.81,39.82A13.2,13.2,0,0,1,38.7,26.16a13.15,13.15,0,0,1,.13,26.3A13.18,13.18,0,0,1,25.81,39.82Z"/><path class="cls-1" d="M8.83,14.54c1.52-1.79,12.38-14.19,30-14A39.43,39.43,0,0,1,72.66,21.05L40,19.78a20.1,20.1,0,0,0-14.17,5.1,19,19,0,0,0-5,7.79Z"/><path class="cls-1" d="M74.39,25.34C75.25,27.53,81,43,72.57,58.41A39.43,39.43,0,0,1,38.47,78.5q8.28-14.1,16.58-28.19a20.16,20.16,0,0,0,2.2-14.91,18.88,18.88,0,0,0-4.51-8.06Z"/><path class="cls-1" d="M32.66,78.56C30.34,78.15,14.17,75,5.45,59.67a39.42,39.42,0,0,1,.78-39.58L21.54,49a20.07,20.07,0,0,0,11.53,9.68,19,19,0,0,0,9.24.4Z"/></svg>