<svg id="Layer_1" data-name="Layer 1" xmlns="http://www.w3.org/2000/svg" viewBox="0 0 78.69 76.78"><defs><style>.cls-1{fill:#252934;stroke:#252934;stroke-miterlimit:10;}</style></defs><path class="cls-1" d="M29.93,74.67c-.13-3.4-.26-6.81-.38-10.21-4,1.32-6.53.76-8,0-2.16-1.08-2.88-2.82-5.87-6.51a63.76,63.76,0,0,0-5.1-5.62A6,6,0,0,1,15,52c2,.74,2.18,2.52,4.22,4.59.46.48,4.44,4.43,8,3.32,2.39-.73,4-3.51,4.47-6.76a16.43,16.43,0,0,1-15.7-10C12.68,35,17.9,27.69,18.19,27.31a11.67,11.67,0,0,1-.77-6.51,11.36,11.36,0,0,1,1.66-4.21,20,20,0,0,1,4.72,1.14,20.45,20.45,0,0,1,5.62,3.2,33.85,33.85,0,0,1,19.79-.13,20.84,20.84,0,0,1,11.1-4.21,20.62,20.62,0,0,1,.9,5.23,20.4,20.4,0,0,1-.51,5.36c.68.86,5,6.51,3.44,13.41S55.57,53.05,47,53.22l2,5q.12,8.17.25,16.34C66.44,69.49,78.1,54.43,78.19,38.16,78.3,17.7,60.1.55,39.5.5,17.08.44-.75,20.67.57,41.61c1,15.25,12,29,27.83,34.59Z"/></svg>