<svg id="Layer_1" data-name="Layer 1" xmlns="http://www.w3.org/2000/svg" viewBox="0 0 81.24 65.31"><defs><style>.cls-1{fill:#252934;stroke:#252934;stroke-miterlimit:10;}</style></defs><path class="cls-1" d="M34.21,17.81H15.81c-8.24.23-14.09,6-14.16,11.62,0,5.09,4.6,8.6,5.24,9.06C1.63,45.5,1.18,48.24,2,49.35c.43.56,1.32.84,1.4,1.66.13,1.18-1.63,1.84-2.42,3.06a4.2,4.2,0,0,0-.36,3.32A8.65,8.65,0,0,0,7.19,63.9a35.27,35.27,0,0,0,9,.89C21,64.64,28.57,64.41,32,59.18c.16-.25,3.58-5.58.76-10.09-2.23-3.58-6.72-3.92-7.27-4L9.82,43.6,12,40.41c8.87,2.19,16.73-1.91,18.51-7.66C32,28.06,29,23.49,28.34,22.54h5.87Zm-9.7,36.51c-.35.58-3.35,5.39-8.56,5.62-3.89.17-8.56-2.25-8.55-4.85,0-.51.19-1.68,2.17-3.06ZM22.72,29.69c-.42,3.22-3.83,5.31-6.9,5a6,6,0,0,1-5.23-4.34,6.3,6.3,0,0,1,5.87-7.27C20,23,23.17,26.22,22.72,29.69Z"/><path class="cls-1" d="M39.76,6.18a5.81,5.81,0,0,1,11.62-.06,5.81,5.81,0,0,1-11.62.06Z"/><path class="cls-1" d="M69.63,16.39V7.14H63.37a8.26,8.26,0,0,1-1.59,7.15A8.12,8.12,0,0,1,55.53,17v5.49h4.22V40.71a10.5,10.5,0,0,0,2.41,7.15c3.65,4,11.47,4.33,18.45-.32-.72-1.64-1.45-3.27-2.17-4.91A5.57,5.57,0,0,1,72.06,44a5.68,5.68,0,0,1-2.88-4V22.59h9.14V16.26Z"/><path class="cls-1" d="M41.8,44l-4,1.08v4.79H55.46v-4.6l-4.28-.83V17.09H38v4.68l3.71,1.84Q41.75,33.78,41.8,44Z"/></svg>