<svg id="Layer_1" data-name="Layer 1" xmlns="http://www.w3.org/2000/svg" viewBox="0 0 60.45 70.73"><defs><style>.cls-1{fill:#252934;}.cls-1,.cls-2{stroke:#252934;stroke-miterlimit:10;}.cls-2{fill:#fff;}</style></defs><path class="cls-1" d="M.54.5H59.91l-5,60.89L30.8,70.2,5.78,62Q3.16,31.27.54.5Z"/><path class="cls-2" d="M11.4,13.14l.51,6.76,19.27.51L13.31,27.82c0,2.38.09,4.77.13,7.15H39.23l-.13,9.32A14.73,14.73,0,0,1,22,44.93c-.08-1.79-.17-3.58-.25-5.37l-7.66-.12.63,11.23a28.37,28.37,0,0,0,31.15.38q.84-11.41,1.66-22.85H31.31L48.8,20.41V12.76Z"/></svg>