<svg id="Layer_1" data-name="Layer 1" xmlns="http://www.w3.org/2000/svg" viewBox="0 0 99.81 61.36"><defs><style>.cls-1,.cls-2,.cls-3{fill:#252934;stroke:#252934;}.cls-1,.cls-2,.cls-3,.cls-4,.cls-5{stroke-miterlimit:10;}.cls-2{stroke-width:0.25px;}.cls-3{font-size:4.41px;stroke-width:0.1px;font-family:ArialMT, Arial;}.cls-4,.cls-5{fill:none;stroke:#fff;}.cls-4{stroke-width:0.5px;}.cls-5{stroke-width:0.38px;}</style></defs><path class="cls-1" d="M66.78.94V16.63L63.1,14.51,52.92,20.38V32.13L63.1,38l10.17-5.87V5.28Zm0,27.44L63.1,30.51l-3.69-2.13V24.13L63.1,22l3.68,2.13Z"/><polygon class="cls-1" points="20.84 20.38 20.84 36.08 17.42 34.11 14.35 32.34 14.35 24.13 10.67 22 6.98 24.13 6.98 32.34 3.92 34.11 0.5 36.08 0.5 20.38 10.67 14.51 20.84 20.38"/><polygon class="cls-1" points="47.05 32.13 47.05 20.38 36.88 14.51 26.71 20.38 26.71 32.13 36.88 38 47.05 32.13"/><polygon class="cls-1" points="89.14 24.04 91.05 25.15 91.05 27.36 89.14 28.47 87.22 27.36 87.22 25.15 89.14 24.04"/><polygon class="cls-1" points="92.82 27.91 92.82 28.3 92.65 28.01 92.82 27.91"/><polygon class="cls-1" points="99.31 24.16 92.82 27.91 92.82 24.13 89.14 22 85.45 24.13 85.45 28.38 88.82 30.32 89.14 30.51 95.63 34.25 89.14 38 78.97 32.13 78.97 20.38 89.14 14.51 99.31 20.38 99.31 24.16"/><polygon class="cls-1" points="89.14 24.04 91.05 25.15 91.05 27.36 89.14 28.47 87.22 27.36 87.22 25.15 89.14 24.04"/><polygon class="cls-1" points="92.82 27.91 92.82 28.3 92.65 28.01 92.82 27.91"/><polygon class="cls-1" points="91.05 25.15 91.05 27.36 89.14 28.47 87.22 27.36 87.22 25.15 89.14 24.04 91.05 25.15"/><polygon class="cls-1" points="92.82 27.91 92.82 28.3 92.65 28.01 92.82 27.91"/><path class="cls-2" d="M55.63,50.43a3,3,0,0,0-1.3-1,13.35,13.35,0,0,0-2.21-.63,5.36,5.36,0,0,1-2-.72,1.14,1.14,0,0,1-.39-.89,1.31,1.31,0,0,1,.55-1.06A2.81,2.81,0,0,1,52,45.66a2.74,2.74,0,0,1,1.75.48,2.1,2.1,0,0,1,.69,1.44l1.27-.1a3,3,0,0,0-.49-1.58,2.87,2.87,0,0,0-1.31-1,5,5,0,0,0-2-.36,4.71,4.71,0,0,0-1.84.34,2.65,2.65,0,0,0-1.26,1,2.54,2.54,0,0,0-.43,1.42,2.33,2.33,0,0,0,.35,1.25,2.74,2.74,0,0,0,1.07.93,8.74,8.74,0,0,0,1.93.63,15.64,15.64,0,0,1,1.79.49,2,2,0,0,1,.9.59,1.3,1.3,0,0,1,.27.82,1.43,1.43,0,0,1-.28.86,1.9,1.9,0,0,1-.86.62,3.73,3.73,0,0,1-1.34.22,4,4,0,0,1-1.54-.29,2.28,2.28,0,0,1-1-.78,2.75,2.75,0,0,1-.41-1.24l-1.25.11a3.29,3.29,0,0,0,.55,1.8,3.21,3.21,0,0,0,1.44,1.2,5.83,5.83,0,0,0,2.28.39,4.62,4.62,0,0,0,1.93-.39,3,3,0,0,0,1.31-1.1A2.68,2.68,0,0,0,56,51.85,2.52,2.52,0,0,0,55.63,50.43Z"/><path class="cls-2" d="M59.91,42.73V55.06L49.24,61.22l-3.6-2.08,1-.57,2.59,1.49,9.67-5.58V43.31l-9.67-5.58-9.67,5.58V54.48l1,.57,1.49.86,1.24.72a1.35,1.35,0,0,0,.8-.27,1.45,1.45,0,0,0,.5-.75,6,6,0,0,0,.14-1.51V45.79h1.32V54a7.14,7.14,0,0,1-.3,2.34,2.41,2.41,0,0,1-.87,1.2l-.09.07a2.56,2.56,0,0,1-1.09.4l-2.9-1.67-2.23-1.29V42.73l10.67-6.16Z"/><text class="cls-3" transform="translate(61.81 45.31)">®</text><path class="cls-4" d="M94.84,29a.94.94,0,0,0-.37.74.07.07,0,0,0,0,.05h.3"/><path class="cls-4" d="M95.07,28.69a11.13,11.13,0,0,0-1.93.7.39.39,0,0,0-.21.15c-.11.18,0,.17.17.12a2.65,2.65,0,0,0,.42-.26"/><path class="cls-4" d="M91.78,29.18a5.85,5.85,0,0,1,1.94-.28"/><path class="cls-4" d="M92.84,30.19a3.47,3.47,0,0,1,1.29-.56"/><path class="cls-4" d="M91.87,29.43A8.57,8.57,0,0,1,93.81,29"/><path class="cls-4" d="M93.53,28.75c-.23.19-.46.37-.7.54"/><path class="cls-4" d="M93.48,28.59a3.07,3.07,0,0,0-.45.2,1,1,0,0,0-.37.32"/><line class="cls-4" x1="93.73" y1="28.44" x2="92.84" y2="29.33"/><line class="cls-5" x1="93.7" y1="28.2" x2="92.45" y2="28.92"/><line class="cls-4" x1="92.07" y1="27.36" x2="92.07" y2="28.63"/></svg>