<svg id="Layer_1" data-name="Layer 1" xmlns="http://www.w3.org/2000/svg" viewBox="0 0 68.91 63.12"><defs><style>.cls-1{fill:#252934;}</style></defs><path class="cls-1" d="M51.71,21.28c-.74-.31-1.48-.59-2.22-.83l-.56-.19h0l-1.09-.34,0-.17c-.07-.34-.13-.67-.21-1-.11-.49-.24-1-.38-1.45s-.28-.93-.43-1.39l-.33-.9c-.17-.44-.35-.88-.54-1.3s-.39-.84-.6-1.24-.28-.54-.43-.79a21.5,21.5,0,0,0-1.94-2.87c-.27-.32-.54-.63-.82-.93l-.28-.3-.29-.28a12,12,0,0,0-8.36-3.69,12.07,12.07,0,0,0-8.52,3.84l-.29.3-.28.3c-.28.31-.56.64-.83,1a24.32,24.32,0,0,0-4.12,8.31A31.67,31.67,0,0,0,18,24.61c0,.46,0,.91,0,1.38,0,.88,0,1.74.1,2.59,0,.59.1,1.16.18,1.73s.17,1.13.27,1.68a29,29,0,0,0,.8,3.21,26.47,26.47,0,0,0,.94,2.59c.15.35.3.68.45,1a23,23,0,0,0,1.59,2.81,4.34,4.34,0,0,1,1-.15h.16a4.61,4.61,0,0,1,3.7,1.86,3.41,3.41,0,0,1,.25.37q.11.18.21.39a3,3,0,0,1,.17.41,4.4,4.4,0,0,1,.28,1.59A5,5,0,0,1,28,47a5.13,5.13,0,0,1-.34,1c-.06.12-.12.24-.19.36l-.11.18-.15.21c-.1.14-.2.26-.31.39l-.18.18A4.37,4.37,0,0,1,26,50a4.32,4.32,0,0,1-1.54.61,4.61,4.61,0,0,1-5.18-6.28,4.16,4.16,0,0,1,.25-.52c-.48-.72-.94-1.48-1.38-2.27-.21-.4-.42-.8-.62-1.21s-.39-.83-.57-1.26c-.09-.21-.18-.43-.26-.65a30.42,30.42,0,0,1-1.26-3.92c-.07-.3-.15-.61-.21-.92S15,32.84,15,32.47c-.11-.61-.21-1.23-.29-1.87a34.07,34.07,0,0,1-.3-4.09V26c0-.91,0-1.81.1-2.7,0-.53.09-1.06.16-1.58a32.44,32.44,0,0,1,1.22-5.82c.12-.39.25-.78.38-1.16.06-.19.13-.38.2-.56.21-.56.43-1.11.67-1.65l.24-.53c.37-.79.77-1.55,1.19-2.28.14-.24.29-.48.44-.72.33-.53.68-1,1-1.54.24-.32.49-.64.75-1,.38-.47.77-.91,1.18-1.33A15.7,15.7,0,0,1,33.19,0C42.41,0,50.1,9.19,51.71,21.28Z"/><path class="cls-1" d="M67.57,53.38C64.76,59.4,58,62.69,50,62.69a32.47,32.47,0,0,1-11.89-2.34c.6-.39,1.18-.8,1.74-1.22s1.19-.92,1.73-1.38a28.56,28.56,0,0,0,8.54,1.36,18.16,18.16,0,0,0,10.41-2.88,9.46,9.46,0,0,0,.78-.6c.26-.21.5-.43.73-.65a10.66,10.66,0,0,0,1-1.07l.29-.39c.14-.2.27-.39.4-.6s.25-.41.36-.63l.21-.44a11.7,11.7,0,0,0,.43-8.34A17.56,17.56,0,0,0,64,41.57l-.22-.49-.18-.36c-.17-.37-.37-.74-.58-1.1a17.71,17.71,0,0,0-1-1.53c-.09-.12-.18-.24-.26-.37-.27-.37-.55-.74-.84-1.09s-.39-.48-.6-.72a29.49,29.49,0,0,0-8.5-6.59c-.47-.25-.94-.48-1.42-.71-.7-.32-1.4-.62-2.09-.89a31.41,31.41,0,0,0-3.61-1.15,27.9,27.9,0,0,0-6.8-.88c-.71,0-1.4,0-2.08.1-.48,0-.95.09-1.42.17a3.53,3.53,0,0,1-.14.56,5.37,5.37,0,0,1-.21.56,4.57,4.57,0,0,1-.75,1.12,2.61,2.61,0,0,1-.23.24,4.48,4.48,0,0,1-1.94,1.12,4.13,4.13,0,0,1-.63.14A4.75,4.75,0,0,1,28,29.31a3.88,3.88,0,0,1-.81-.49,4.5,4.5,0,0,1-1.78-2.9,1.17,1.17,0,0,1,0-.26,4.38,4.38,0,0,1,.13-1.76h0c.05-.16.1-.32.16-.48s.07-.16.11-.23a4.9,4.9,0,0,1,.74-1.13l.17-.18a4.19,4.19,0,0,1,.56-.48c.13-.09.26-.18.4-.26a5,5,0,0,1,1.17-.48l.37-.07a3.94,3.94,0,0,1,.77-.07,4.68,4.68,0,0,1,1.95.43,5.06,5.06,0,0,1,1.2.81,3.79,3.79,0,0,1,.59.68,21.38,21.38,0,0,1,2.29-.27c.66-.05,1.33-.08,2-.08a31.28,31.28,0,0,1,6.67.75l.93.22c.93.23,1.86.51,2.78.82h0A34,34,0,0,1,52,25.33l.05,0c.77.36,1.52.74,2.25,1.15l.48.26h0c.43.24.84.5,1.26.76A33,33,0,0,1,61.6,32c.28.28.55.56.82.85a27.28,27.28,0,0,1,3.75,5,1.55,1.55,0,0,0,.12.22l.52,1C69.31,44,69.59,49.06,67.57,53.38Z"/><path class="cls-1" d="M51.38,41.39c0,.07,0,.15,0,.23l0,.22a3.92,3.92,0,0,1-.15.66l-.07.22a2.66,2.66,0,0,1-.16.39l-.12.23a2,2,0,0,1-.11.2,4.13,4.13,0,0,1-.25.38c-.1.12-.19.24-.3.35a1.29,1.29,0,0,1-.16.17,4.84,4.84,0,0,1-1,.76,4.58,4.58,0,0,1-2.23.58h0l-.18.36-.19.35c-.13.24-.27.48-.41.71-.27.47-.57.94-.88,1.4-.21.31-.42.62-.64.92s-.28.39-.43.58-.36.46-.55.68l-.12.15c-.16.21-.34.41-.52.62a0,0,0,0,0,0,0l-.56.62-.16.17-.52.54-.13.13c-.2.21-.41.41-.63.62h0l-.72.66-.39.35-.35.3q-.78.66-1.62,1.29a34.51,34.51,0,0,1-3.49,2.3l-.59.34c-.24.13-.47.26-.71.37a4.92,4.92,0,0,1-.45.24c-.39.2-.77.38-1.16.56l-.84.38-.69.28-.15.07-1.1.41-.75.27-.25.08-.62.2-.39.11-.58.17-.79.2-.56.14-.15,0c-.44.1-.89.19-1.33.27s-.73.12-1.09.17l-.56.07-.34,0c-.24,0-.47.06-.71.08l-.67,0-.7,0c-.35,0-.71,0-1.05,0h-.67l-.57,0-.37,0a3.4,3.4,0,0,1-.45,0c-.34,0-.67-.06-1-.1l-.39,0a1.46,1.46,0,0,1-.22,0c-.13,0-.25,0-.37-.06-.53-.08-1-.18-1.55-.3L12,62.41c-.38-.1-.75-.2-1.13-.33L10.53,62l-.36-.12-.4-.15-.42-.17-.58-.25-.46-.21h0l-.52-.26-.61-.34-.36-.22a14.44,14.44,0,0,1-1.42-1L5,58.92c-.3-.26-.6-.52-.88-.8S3.35,57.29,3,56.84l-.32-.42L2.37,56c-.12-.16-.23-.33-.33-.49L1.76,55c-.15-.26-.29-.54-.42-.82h0c-.13-.27-.25-.55-.36-.83a15.27,15.27,0,0,1-.55-1.74C.36,51.3.3,51,.24,50.71h0A15.81,15.81,0,0,1,0,47.25c0-.48.06-1,.12-1.45,0-.24.07-.49.11-.73a19.92,19.92,0,0,1,.51-2.2c.07-.24.15-.49.23-.73.18-.54.38-1.09.61-1.63.07-.18.15-.36.23-.54l0-.06c.1-.23.21-.45.32-.68s.24-.48.38-.72.25-.47.38-.7c0,0,0,0,0,0,.27-.47.56-.94.87-1.4.14-.22.28-.44.43-.65.42-.59.86-1.18,1.33-1.74.12-.15.24-.3.37-.44l.41-.48c.1-.12.2-.23.31-.34.32-.36.66-.71,1-1.06l.48-.47.37-.35L9,30.42c.36-.32.73-.63,1.11-.94l.73-.58c.05.73.13,1.46.22,2.18s.19,1.33.32,2.05h0l-.32.29c-.37.34-.72.67-1.06,1l-.5.52L9,35.48,8.59,36l-.05,0c-.3.35-.58.7-.85,1.06l-.41.55c-.26.37-.51.74-.75,1.12-.34.54-.66,1.08-.94,1.63a.43.43,0,0,0,0,.07c-.1.19-.19.38-.28.57s-.18.38-.26.57-.17.39-.25.58a15.88,15.88,0,0,0-.59,1.72L4,44.48c0,.2-.1.4-.14.6s0,.28-.08.42-.08.46-.11.69,0,.38,0,.56a11.25,11.25,0,0,0,.82,5.54c.14.32.29.63.46.94l.14.24.12.2.2.3s0,0,0,.05c.12.17.23.34.36.5a2.65,2.65,0,0,0,.21.26,1.15,1.15,0,0,0,.14.17,4.59,4.59,0,0,0,.36.41l.31.31c.11.11.22.22.34.32a2.61,2.61,0,0,0,.31.27l.35.28c.25.2.51.38.78.56l.26.16a3.35,3.35,0,0,0,.36.21c.16.1.33.19.5.28l.62.3.43.19.45.17c.21.09.44.17.66.24l.93.28.6.14.52.12.19,0c.38.07.77.13,1.16.18l.64.07c.45,0,.9.07,1.36.08h.63a25.16,25.16,0,0,0,3.09-.2c.53-.06,1.06-.15,1.59-.25l.8-.16.75-.18.66-.17.45-.12c.47-.14.94-.28,1.41-.45.26-.08.52-.17.77-.27l.83-.31c.54-.22,1.08-.46,1.62-.71l.81-.39,1.21-.63c.78-.44,1.55-.9,2.27-1.39A30.17,30.17,0,0,0,38.36,51a27,27,0,0,0,1.89-2l.52-.62.49-.62.48-.65.42-.61a21.47,21.47,0,0,0,1.27-2.14c-.06-.07-.13-.14-.19-.22a3,3,0,0,1-.22-.28l-.09-.12-.21-.33h0a4.63,4.63,0,0,1,1.81-6.28,4.22,4.22,0,0,1,.88-.37,4.36,4.36,0,0,1,1.18-.2h.18A4.76,4.76,0,0,1,50,37.82l.28.3c.07.07.12.14.18.21a3,3,0,0,1,.2.29,2.12,2.12,0,0,1,.12.2.41.41,0,0,1,.07.11,4.5,4.5,0,0,1,.56,2A4.17,4.17,0,0,1,51.38,41.39Z"/></svg>