<svg id="Layer_1" data-name="Layer 1" xmlns="http://www.w3.org/2000/svg" viewBox="0 0 100.68 70.62"><defs><style>.cls-1{fill:#252934;stroke:#252934;stroke-miterlimit:10;}</style></defs><rect class="cls-1" x="45.93" y="57.48" width="54.26" height="12.64" rx="3.83"/><path class="cls-1" d="M40.45,37.51l-2.93,3-.1.08L10,68a3.83,3.83,0,0,1-5.41,0L1.63,65a3.81,3.81,0,0,1,0-5.41L26.44,34.81,1.63,10a3.81,3.81,0,0,1,0-5.41L4.57,1.62a3.83,3.83,0,0,1,5.41,0L37.42,29.07l3,3A3.81,3.81,0,0,1,40.45,37.51Z"/></svg>